# xmcd
#
# Track frame offsets:
#	182
#	15557
#	25970
#	39977
#	51132
#	66717
#	76332
#	86222
#	96787
#	107490
#
# Disc length: 1606 seconds
#
# Revision: 2
# Processed by: cddbd v1.4PL0 Copyright (c) Steve Scherf et al.
# Submitted via: EasyCDDAExtractor 6.0.0.1
#
DISCID=7a06440a
DTITLE=Bob Wills And His Texas Playboys - Classic Western Swing - Rhino Specia
DTITLE=l Editions
DYEAR=1994
DGENRE=Country
TTITLE0=San Antonio Rose
TTITLE1=Time Changes Everything
TTITLE2=Faded Love
TTITLE3=Roly-Poly
TTITLE4=Steel Guitar Rag
TTITLE5=My Window Faces The South
TTITLE6=Take Me Back To Tulsa
TTITLE7=Stay A Little Longer
TTITLE8=Big Beaver
TTITLE9=Cherokee Maiden
EXTD=
EXTT0=
EXTT1=
EXTT2=
EXTT3=
EXTT4=
EXTT5=
EXTT6=
EXTT7=
EXTT8=
EXTT9=
PLAYORDER=
